<svg id="Layer_1" data-name="Layer 1" xmlns="http://www.w3.org/2000/svg" viewBox="0 0 295.3 121.52"><defs><style>.cls-1{fill:#68676b;}.cls-2{fill:#ff6e00;}</style></defs><title>logo-header-santiago</title><g id="Page-1"><g id="Style---modulos"><g id="Group"><g id="Logo-Stgo"><path id="Path" class="cls-1" d="M0,79.4A42.39,42.39,0,0,1,57.09,39.46L55.77,46H40.59L55,54.58,45.94,69.52,60.07,60.1l8.48,11L67.87,56l7.38-3.38A42.62,42.62,0,0,1,50,121.26a32.1,32.1,0,0,1-4.27.26,13.59,13.59,0,0,1-10.57-4.84,17.9,17.9,0,0,1-4.27-12.29h30v-2A22.44,22.44,0,0,0,55.84,87a16.14,16.14,0,0,0-12.62-5.72A17.45,17.45,0,0,0,29.39,87.5c-3.55,4.13-5.31,9.66-5.31,16.64A24.18,24.18,0,0,0,29,119.85,42.57,42.57,0,0,1,0,79.4" transform="translate(0)"/><path id="Path-2" data-name="Path" class="cls-1" d="M53.79,99.13a12.31,12.31,0,0,0-3.19-8.64,9.46,9.46,0,0,0-7.13-3.55,11.35,11.35,0,0,0-8.41,3.38,13.38,13.38,0,0,0-3.7,8.81Z" transform="translate(0)"/><polygon id="Path-3" data-name="Path" class="cls-2" points="66.28 26.17 64.49 20.45 58.95 19.44 63.34 17.39 59.28 13.17 65.59 15.77 69.41 10.75 69.41 16.87 73.85 18.13 68.61 20.45 66.28 26.17"/><polygon id="Path-4" data-name="Path" class="cls-2" points="92.61 24.84 86.5 22.28 81.67 26.31 83.05 21.08 76.58 21.54 83.3 18 81.76 11.13 86.96 15.5 91.19 12.62 89.43 18.76 92.61 24.84"/><polygon id="Path-5" data-name="Path" class="cls-2" points="93.01 41.16 91.65 37.02 87.59 36.35 90.77 34.79 87.76 31.76 92.39 33.59 95.1 29.87 95.17 34.33 98.42 35.19 94.64 36.96 93.01 41.16"/><polygon id="Path-6" data-name="Path" class="cls-2" points="93.07 6.39 89.33 6 87.38 9 87.28 5.93 83.85 7.26 86.9 4.21 84.95 0.76 88.48 2.27 90.3 0 90.34 3.62 93.07 6.39"/><polygon id="Path-7" data-name="Path" class="cls-2" points="83.03 48.28 74.63 41.8 65.33 46.61 69.81 38.49 59.58 36.51 71.46 33.82 71.91 22.59 78.12 31.51 85.88 28.8 80.62 37.55 83.03 48.28"/><path id="Shape" class="cls-1" d="M132.23,84.43h-27.7A16,16,0,0,0,108,93.06a12.1,12.1,0,0,0,9.64,4.22,21.48,21.48,0,0,0,6.19-1.19,11.3,11.3,0,0,0,5.44-2.76v7.21a31.45,31.45,0,0,1-11.63,2.51c-6.55,0-11.57-1.77-15.18-5.28s-5.31-8.58-5.31-15.15a21.24,21.24,0,0,1,4.61-14.17A16.53,16.53,0,0,1,115,62.62c5.69,0,9.89,1.75,12.73,5.28S132,76.5,132,83.15Zm-7.42-5.34a11.44,11.44,0,0,0-2.58-7.87,9,9,0,0,0-7-2.84,9.71,9.71,0,0,0-8,3.71,14.11,14.11,0,0,0-2.73,7Z" transform="translate(0)"/><path id="Path-8" data-name="Path" class="cls-1" d="M175.32,102.12h-7V79a12.15,12.15,0,0,0-2.24-7.87,7.78,7.78,0,0,0-6.41-2.78,9.67,9.67,0,0,0-9.11,5.39,23.24,23.24,0,0,0-2.29,11.1V102h-7V63.53H148V69.9q3.8-7.34,13.28-7.34a12.76,12.76,0,0,1,10.82,4.77A18.86,18.86,0,0,1,175.36,79Z" transform="translate(0)"/><path id="Path-9" data-name="Path" class="cls-2" d="M199.23,92.78a10.42,10.42,0,0,1-3,7.91,11.56,11.56,0,0,1-8.13,2.76,16.43,16.43,0,0,1-2.61-.3,13.44,13.44,0,0,1-1.9-.44V97a6,6,0,0,0,2.64.55q6.25,0,6.26-7.45V63.19h6.79Z" transform="translate(0)"/><path id="Shape-2" data-name="Shape" class="cls-2" d="M243.37,83a21.22,21.22,0,0,1-5,14.58,19.61,19.61,0,0,1-28,0A21.2,21.2,0,0,1,205.51,83a21.34,21.34,0,0,1,4.9-14.68,19.7,19.7,0,0,1,28,0,21.08,21.08,0,0,1,5,14.57m-6.63,0a16.73,16.73,0,0,0-3-10.22,11.95,11.95,0,0,0-18.62,0,16.63,16.63,0,0,0-3,10.22,16.15,16.15,0,0,0,3.36,10.65,12,12,0,0,0,18.28-.44,16.66,16.66,0,0,0,3-10.21" transform="translate(0)"/><polygon id="Path-10" data-name="Path" class="cls-2" points="282.24 63.19 266.99 86.18 266.99 102.73 260.02 102.73 260.02 86.18 244.66 63.19 252.55 63.19 263.48 80.16 274.14 63.19 282.24 63.19"/><path id="Shape-3" data-name="Shape" class="cls-2" d="M292.39,71l-1.13-1.74a8.43,8.43,0,0,0-.55-.78,1.47,1.47,0,0,0,1.05-.49,1.5,1.5,0,0,0,.39-1.11c0-.84-.51-1.39-1.9-1.39h-1.67V71h.95V68.57h0L291.05,71Zm-1.23-4c0,.45-.28,1-1.16,1h-.39v-1.7h.7c.68,0,.93.21.93.75Zm-.8-2.67a3.94,3.94,0,0,1,3.8,4,3.85,3.85,0,0,1-1.07,2.77,3.81,3.81,0,0,1-2.73,1.16,4,4,0,0,1-4-4,3.9,3.9,0,0,1,3.89-3.81Zm-.07-.9a4.95,4.95,0,0,0-3.55,8.44,4.91,4.91,0,0,0,3.57,1.43,5.09,5.09,0,0,0,5-5,5,5,0,0,0-1.44-3.57,4.92,4.92,0,0,0-3.55-1.44Z" transform="translate(0)"/></g></g></g></g></svg>